<svg xmlns="http://www.w3.org/2000/svg" viewBox="0 0 32 32" width="32" height="32">
  <!-- Background -->
  <circle cx="16" cy="16" r="15" fill="#0d1117" stroke="#30363d" stroke-width="1"/>

  <!-- Shield -->
  <path d="M16 4 L26 8 L26 17 Q26 24 16 28 Q6 24 6 17 L6 8 Z"
        fill="#1f6feb"/>
  <path d="M16 7 L23 10 L23 17 Q23 23 16 26 Q9 23 9 17 L9 10 Z"
        fill="#0d1117" opacity="0.4"/>

  <!-- Log lines -->
  <rect x="11" y="13" width="10" height="2" rx="1" fill="#58a6ff"/>
  <rect x="11" y="17" width="7" height="2" rx="1" fill="#58a6ff" opacity="0.7"/>
  <rect x="11" y="21" width="8" height="2" rx="1" fill="#58a6ff" opacity="0.5"/>

  <!-- Export arrow -->
  <path d="M22 16 L26 16 M24 14 L26 16 L24 18"
        stroke="#3fb950" stroke-width="1.5" stroke-linecap="round" stroke-linejoin="round" fill="none"/>
</svg>
